PathFileType	4	(X/Y/Z)	RBDS014\RBDS014runT25.trc
DataRate	CameraRate	NumFrames	NumMarkers	Units	OrigDataRate	OrigDataStartFrame	OrigNumFrames
150.000000	150.000000	6	33	mm	150.000000	2812	4500
Frame#	Time	L.ASIS			L.Heel.Bottom			L.Heel.Lateral			L.Heel.Top			L.Iliac.Crest			L.MT1			L.MT5			L.PSIS			L.Shank.Bottom.Lateral			L.Shank.Bottom.Medial			L.Shank.Top.Lateral			L.Shank.Top.Medial			L.Thigh.Bottom.Lateral			L.Thigh.Bottom.Medial			L.Thigh.Top.Lateral			L.Thigh.Top.Medial			R.ASIS			R.ASY			R.Heel.Bottom			R.Heel.Lateral			R.Heel.Top			R.Iliac.Crest			R.MT1			R.MT5			R.PSIS			R.Shank.Bottom.Lateral			R.Shank.Bottom.Medial			R.Shank.Top.Lateral			R.Shank.Top.Medial			R.Thigh.Bottom.Lateral			R.Thigh.Bottom.Medial			R.Thigh.Top.Lateral			R.Thigh.Top.Medial			
		X1	Y1	Z1	X2	Y2	Z2	X3	Y3	Z3	X4	Y4	Z4	X5	Y5	Z5	X6	Y6	Z6	X7	Y7	Z7	X8	Y8	Z8	X9	Y9	Z9	X10	Y10	Z10	X11	Y11	Z11	X12	Y12	Z12	X13	Y13	Z13	X14	Y14	Z14	X15	Y15	Z15	X16	Y16	Z16	X17	Y17	Z17	X18	Y18	Z18	X19	Y19	Z19	X20	Y20	Z20	X21	Y21	Z21	X22	Y22	Z22	X23	Y23	Z23	X24	Y24	Z24	X25	Y25	Z25	X26	Y26	Z26	X27	Y27	Z27	X28	Y28	Z28	X29	Y29	Z29	X30	Y30	Z30	X31	Y31	Z31	X32	Y32	Z32	X33	Y33	Z33	

2813	18.74666666666667	2201.191424605005	1073.722316611004	939.6272681958866	2162.658447234883	28.01851143519476	1049.100958861074	2184.251445004189	50.20660408165966	1007.593290794708	2173.277376870598	77.97650775988619	1050.511125515949	2124.118270300457	1135.037166562533	900.3505945652319	2400.236251694637	47.07095379563008	1082.520168030467	2355.136131048929	39.00846759364747	966.1740511145292	2024.554512501618	1087.042173719733	1016.292540873536	2250.735492982616	179.3574609248856	972.8527830183647	2206.690338672087	189.3148554385116	1004.748406656876	2250.348432919587	256.5522312684355	950.0999477179143	2207.979176921548	266.9646619271505	981.910635711526	2245.627108518994	703.8733212886584	892.8406454959779	2191.619864821801	678.5803296835425	933.5655528209911	2188.309558472951	797.7629350385201	879.9237730502315	2138.917263654749	775.2567543891693	920.7136287944004	2219.222816943819	1072.62292620228	1180.235920578268	1656.039097848973	242.6462138526558	1134.084698521181	1561.246434507059	406.9494851784773	1050.874185316481	1577.450496280962	402.1106711590668	1098.411396032674	1612.344495298632	411.2462393494217	1061.201950822286	2174.319806703184	1145.635320824757	1202.758979863025	1629.685665273836	184.6327324652159	1090.871437922037	1585.500515207372	244.9605801366004	1184.530695040729	2041.206210905061	1090.654926909435	1112.469651286081	1711.58948044266	416.478233548589	1147.297990557988	1714.457629049913	437.0684459023079	1100.307524543136	1783.779795390157	456.6916653223323	1166.737244631935	1782.321076558795	477.9870343539137	1118.333165540192	2115.520817030564	654.8008213031671	1229.326295035149	2053.232967282969	659.8499956859769	1190.460946573459	2111.551475472977	763.3017859491846	1242.814065553793	2054.097129889865	768.9026115033884	1203.700776945444	
2814	18.75333333333333	2199.242995266602	1069.671485934771	940.3820741514588	2146.073170113497	28.70277695275498	1049.45920209501	2167.88581995877	50.99463551767636	1008.049439912247	2157.218386746854	78.61787710080171	1051.143663568032	2122.286208756303	1128.581825000121	900.3623566277325	2384.12812672636	45.85588497223814	1083.163636304256	2338.820412516437	38.59642251227909	966.6416138314308	2022.771175162408	1080.679031658633	1017.690677093065	2238.776030858533	178.7429497969265	973.5504041634017	2194.926002322263	190.3779012176324	1005.236432883926	2240.877512336521	255.8610889888958	950.2332805975288	2198.858294177885	267.8341652156228	982.0259198378834	2243.524689048946	700.6932861786264	891.5678436456384	2190.281115591362	675.5410982310102	933.4052290836798	2186.109036128392	794.5589330119342	879.2391753644712	2137.356659785575	772.1804334872954	920.9546683172472	2218.446473290775	1067.195808268622	1180.667211040085	1662.646215038643	247.6004986709465	1133.753195335738	1570.836493481914	415.1993285706243	1053.757322500031	1587.297059520941	409.336382918308	1101.083013762949	1622.051115608436	418.1385893573544	1063.564253370695	2172.768697311579	1139.337290297951	1204.06037017742	1634.389857515835	190.8937363587743	1089.906817378621	1592.499677934924	250.780114077769	1184.850618122216	2039.951739986181	1084.319439358235	1113.350444244744	1722.206561605132	419.8624965834527	1148.923081800936	1725.305046300479	440.8530050056133	1102.129070900503	1795.685959752425	457.7726517107587	1168.264693136717	1794.420182492935	479.6213161205806	1120.10223670627	2124.065106111344	648.5142942777609	1228.947405705612	2061.506130045856	652.0086004500299	1190.450007318127	2117.562830034626	756.9372634716669	1242.603214210817	2059.704396653607	761.0390489524417	1203.803905940766	
2815	18.76	2197.087165219456	1066.079702397612	941.0053918958407	2129.590781370935	29.29611896547982	1049.664265168159	2151.530158414912	51.68947440484821	1008.306140472389	2141.039176113541	79.19149787045235	1051.504618507307	2119.940444847294	1122.379238419703	900.4729366735826	2367.854751792234	45.59036963661742	1083.504170724171	2322.44808682988	38.65115216374366	966.9228006191086	2020.889287409071	1074.69838429992	1019.228824914272	2226.352936606429	178.4585217962886	973.9661104387305	2182.777730074356	191.6761280479251	1005.518081960696	2230.820280368258	255.4502179654473	950.1734007133304	2189.232251931136	268.8957488264047	982.0102500736579	2241.103791944382	697.8026805799591	890.4212282799639	2188.468305000423	672.8178570938325	933.171442133402	2183.753964002988	791.7264808290099	878.6164455450361	2135.50038483664	769.5150317540792	921.1005376301266	2217.415230221489	1061.861202738585	1181.089693678857	1670.60366896426	252.0679380814075	1133.397673668686	1581.212823234671	422.6793866488381	1056.971306941419	1597.984913721448	415.7588381416498	1104.049390144043	1632.52343171488	424.4063370783445	1066.204728860613	2170.946026655568	1133.144451779322	1205.376748187176	1640.659569440801	196.6583258300564	1088.879503929105	1600.924491712792	255.7460577314198	1185.255614666621	2038.540120528352	1078.370164646784	1114.259394063591	1733.643734212565	422.8092621869312	1150.631254531889	1736.889840887436	444.271599186044	1104.070557599029	1808.267433847931	458.5573074454287	1169.858494845922	1807.098511120187	481.0267983407273	1121.968278665489	2132.954244168953	642.6818564526995	1228.38506154656	2070.072825488151	644.5640415644946	1190.421847189176	2123.874974000751	750.9352447595817	1242.269896530743	2065.537698983373	753.4893301271645	1203.974076284866	
2816	18.76666666666667	2194.803501658345	1063.001400933417	941.4595741322062	2113.196826547127	29.79654606035079	1049.72744002335	2135.190619080285	52.27202743119062	1008.380849989668	2124.782757487355	79.69272374886091	1051.61978739401	2117.124371831415	1116.613430240948	900.6714503395597	2351.483134988798	45.97830876701264	1083.541758811129	2306.037754320031	38.9720834516813	967.0100090251345	2018.975734251111	1069.266318276128	1020.854864618059	2213.508999230213	178.3627707161426	974.1027044374561	2170.26274417905	193.0417269464664	1005.573468866466	2220.199406026183	255.1815867796444	949.9311413545522	2179.088426331534	269.9908462963101	981.8389019525068	2238.354005845016	695.1756338831846	889.4220747411407	2186.117494927722	670.3886295552628	932.8215770083607	2181.255608860212	789.2605884952186	878.0544474131898	2133.329708102368	767.2600397519892	921.1094408762644	2216.141027429657	1056.740224475523	1181.50784314671	1679.886803866701	256.0373071460459	1133.058750436362	1592.215444574745	429.2561775713034	1060.474421807833	1609.375198592529	421.2953176823391	1107.263228754096	1643.612954474129	429.9668987114146	1069.077825775684	2168.861047686383	1127.223799755594	1206.670837038254	1648.508907531487	201.8466391940588	1087.87816278333	1610.77115095044	259.8330239932573	1185.793515144343	2037.011514862477	1072.951437425823	1115.176734769271	1745.803291440953	425.3217054742515	1152.377803216842	1749.116320873498	447.3089785635719	1106.079277985429	1821.425987831042	459.093305762566	1171.455917525728	1820.262266739007	482.2311563029018	1123.861957662968	2142.169529066484	637.3981330576644	1227.64782532415	2078.938634057433	637.6041648046603	1190.344409762857	2130.466522690631	745.3815904703898	1241.800375819163	2071.597401880074	746.3376594282415	1204.175539444535	
2817	18.77333333333333	2192.473492965428	1060.455165648388	941.7349002618382	2096.851681946501	30.21126433538996	1049.674751057725	2118.850352781299	52.73870488217163	1008.308734298884	2108.466805940712	80.1240344327713	1051.536152458584	2113.933175012311	1111.455581427022	900.9350313147098	2335.050879477803	46.73129131793394	1083.319409911732	2289.587357588934	39.38847686201768	966.9251972306678	2017.086306355641	1064.526634148961	1022.493638439084	2200.287713657822	178.3314488212697	973.9970496119473	2157.394770258507	194.3349518439201	1005.410903374942	2209.049585526929	254.9348914145152	949.5408057966454	2168.424137031709	270.9878144904644	981.5083561210295	2235.259008644052	692.7801624174883	888.5757096030965	2183.174171992339	668.2255184018192	932.3174462518074	2178.608941010461	787.1437193343111	877.5458159455493	2130.822768647875	765.4012107626999	920.9500869196721	2214.646676310302	1051.958163265495	1181.931360885728	1690.450949460889	259.4928635282896	1132.76932278358	1603.686173375017	434.810381315672	1064.221993205946	1621.328880452036	425.8743040699248	1110.675478588261	1655.171296398888	434.7461978211092	1072.138210723661	2166.527951639625	1121.745034080166	1207.907951298977	1657.920748509321	206.3815445600644	1086.977810533527	1622.016027534236	263.020114931211	1186.496929879441	2035.404145209252	1068.18275354297	1116.072387878198	1758.581966894217	427.4005781177841	1154.125703329521	1761.878367937479	449.9487133662767	1108.110754028391	1835.059655537184	459.423521010002	1173.002421778373	1833.809792138188	483.2573841385841	1125.7236600906	2151.672761078907	632.7508799905972	1226.752433824971	2088.095404053337	631.2139972142647	1190.184130715267	2137.297029352718	740.358695717433	1241.189802982927	2077.872951696732	739.6659287814373	1204.367509089509	
2818	18.78	2190.171458417467	1058.425976591361	941.8477383472447	2080.506222321435	30.55353621943346	1049.540951290477	2102.481682425236	53.09860788228553	1008.134630980138	2092.092810759854	80.49285556981495	1051.312297613472	2110.505540799797	1107.049862245874	901.2322145173125	2318.574158032683	47.60101415125644	1082.908076083451	2273.084479899682	39.77337497560857	966.7102725123505	2015.260354018189	1060.588751061611	1024.056804081931	2186.730191552146	178.2726011079152	973.7088611731983	2144.187603055456	195.4587962280352	1005.063485163166	2197.412105942211	254.6228512262743	949.0525035742153	2157.248228082232	271.7965537078171	981.0370919906372	2231.797498459297	690.5854052928787	887.8751869298649	2179.598342052023	666.302487999531	931.6337358278987	2175.794435199315	785.3512152676108	877.0809251568725	2127.956865613357	763.9164002539549	920.6070752299838	2212.965262131523	1047.636784236182	1182.371307674804	1702.230110178698	262.4116802995587	1132.553521874536	1615.479983104412	439.2410250343847	1068.163737427671	1633.714167866786	429.4370331243157	1114.233980238989	1667.059980504978	438.6792166968097	1075.338905023853	2163.969381882368	1116.867217350338	1209.057477010122	1668.844765621683	210.1900614121562	1086.236635199855	1634.609800416682	265.2913510280645	1187.380739628865	2033.751406196216	1064.150968087084	1116.909108445614	1771.873696508968	429.0425710147792	1155.846336143888	1775.063573770581	452.1728414097744	1110.129907012568	1849.065268447905	459.5821556310884	1174.4549593364	1847.63508178551	484.1213879516834	1127.506746615646	2161.407467207014	628.8202306212951	1225.723003384724	2097.518318164528	625.4755259197287	1189.911757640342	2144.309009484933	735.945060015208	1240.442744220976	2084.341351867848	733.5536879761571	1204.509223649163	
